<?xml version="1.0" encoding="UTF-8"?>
<svg xmlns="http://www.w3.org/2000/svg" viewBox="0 0 1024 1024" width="1024" height="1024">
  <title>Masquerade monogram (light, maskable)</title>
  <rect x="0" y="0" width="1024" height="1024" fill="#FAF7F2"/>
  <g transform="translate(113 113) scale(0.78)">
    <g fill="none" stroke="#8B2635" stroke-width="28" stroke-linecap="square" stroke-linejoin="miter">
      <path d="M334 296H248V728H334"/>
      <path d="M690 296H776V728H690"/>
    </g>
    <g transform="rotate(45 512 512)" fill="#8B2635">
      <rect x="447" y="372" width="130" height="78" rx="14"/>
      <rect x="497" y="440" width="30" height="212" rx="15"/>
    </g>
    <g transform="rotate(-45 512 512)">
      <path fill="#8B2635" d="M512 372C468 452 464 548 500 622C506 638 518 638 524 622C560 548 556 452 512 372Z"/>
      <path fill="#8B2635" d="M502 616L522 616L512 686Z"/>
      <path stroke="#FAF7F2" stroke-width="8" stroke-linecap="round" d="M512 396V618"/>
    </g>
  </g>
</svg>
